G04 #@! TF.FileFunction,Copper,L1,Top,Signal*
%FSLAX45Y45*%
G04 Gerber Fmt 4.5, Leading zero omitted, Abs format (unit mm)*
G04 Created by KiCad (PCBNEW 4.0.6+dfsg1-1) date Thu Nov  9 14:23:44 2017*
%MOMM*%
%LPD*%
G01*
G04 APERTURE LIST*
%ADD10C,0.150000*%
%ADD11R,2.032000X1.727200*%
%ADD12O,2.032000X1.727200*%
%ADD13R,1.727200X1.727200*%
%ADD14O,1.727200X1.727200*%
%ADD15O,1.500000X2.800000*%
%ADD16O,1.500000X2.900000*%
%ADD17C,1.700000*%
%ADD18C,1.300000*%
%ADD19R,1.300000X1.300000*%
%ADD20R,1.727200X2.032000*%
%ADD21O,1.727200X2.032000*%
%ADD22C,0.889000*%
%ADD23C,0.200000*%
G04 APERTURE END LIST*
D10*
X16950000Y-12205000D02*
X16950000Y-12250000D01*
X16650000Y-12550000D02*
X16595000Y-12550000D01*
X16950000Y-12205000D02*
X16950000Y-12250000D01*
X16950000Y-9850000D02*
X16950000Y-12205000D01*
X10750000Y-12550000D02*
X16595000Y-12550000D01*
X10450000Y-11450000D02*
X10450000Y-12250000D01*
X10750000Y-9550000D02*
X16600000Y-9550000D01*
X10450000Y-11450000D02*
X10450000Y-9850000D01*
X10450000Y-12250000D02*
G75*
G03X10750000Y-12550000I300000J0D01*
G01*
X16650000Y-12550000D02*
G75*
G03X16950000Y-12250000I0J300000D01*
G01*
X16650000Y-9550000D02*
X16600000Y-9550000D01*
X16950000Y-9850000D02*
G75*
G03X16650000Y-9550000I-300000J0D01*
G01*
X10750000Y-9550000D02*
G75*
G03X10450000Y-9850000I0J-300000D01*
G01*
D11*
X16500000Y-11100000D03*
D12*
X16500000Y-11354000D03*
X16500000Y-11608000D03*
D13*
X11291188Y-10025942D03*
D14*
X11291188Y-9771942D03*
X11545188Y-10025942D03*
X11545188Y-9771942D03*
X11799188Y-10025942D03*
X11799188Y-9771942D03*
X12053188Y-10025942D03*
X12053188Y-9771942D03*
X12307188Y-10025942D03*
X12307188Y-9771942D03*
X12561188Y-10025942D03*
X12561188Y-9771942D03*
X12815188Y-10025942D03*
X12815188Y-9771942D03*
X13069188Y-10025942D03*
X13069188Y-9771942D03*
X13323188Y-10025942D03*
X13323188Y-9771942D03*
X13577188Y-10025942D03*
X13577188Y-9771942D03*
X13831188Y-10025942D03*
X13831188Y-9771942D03*
X14085188Y-10025942D03*
X14085188Y-9771942D03*
X14339188Y-10025942D03*
X14339188Y-9771942D03*
X14593188Y-10025942D03*
X14593188Y-9771942D03*
X14847188Y-10025942D03*
X14847188Y-9771942D03*
X15101188Y-10025942D03*
X15101188Y-9771942D03*
X15355188Y-10025942D03*
X15355188Y-9771942D03*
X15609188Y-10025942D03*
X15609188Y-9771942D03*
X15863188Y-10025942D03*
X15863188Y-9771942D03*
X16117188Y-10025942D03*
X16117188Y-9771942D03*
D15*
X12781188Y-12370942D03*
X12201188Y-12370942D03*
X12201188Y-12050942D03*
X12201188Y-11700942D03*
D16*
X12791188Y-11700942D03*
D17*
X12491188Y-12300942D03*
X12491188Y-11700942D03*
D18*
X16170000Y-12200000D03*
D19*
X15920000Y-12200000D03*
D11*
X10950000Y-11600000D03*
D12*
X10950000Y-11346000D03*
X10950000Y-11092000D03*
D20*
X11175000Y-12125000D03*
D21*
X11429000Y-12125000D03*
X11683000Y-12125000D03*
D22*
X16100000Y-12075000D03*
X16350000Y-12425000D03*
D23*
X16100000Y-12075000D02*
X16350000Y-12325000D01*
X16350000Y-12325000D02*
X16350000Y-12425000D01*
X11429000Y-12125000D02*
X11429000Y-12003400D01*
X11429000Y-12140240D02*
X11429000Y-12125000D01*
X11175000Y-12125000D02*
X11175000Y-12109760D01*
M02*
