M48
;DRILL file {KiCad 4.0.6+dfsg1-1} date Thu Nov  9 14:23:48 2017
;FORMAT={-:-/ absolute / metric / decimal}
FMAT,2
METRIC,TZ
T1C0.635
T2C0.800
T3C0.900
T4C1.016
T5C1.700
%
G90
G05
M71
T1
X161.Y-120.75
X163.5Y-124.25
T2
X159.2Y-122.
X161.7Y-122.
T4
X109.5Y-110.92
X109.5Y-113.46
X109.5Y-116.
X111.75Y-121.25
X112.912Y-97.719
X112.912Y-100.259
X114.29Y-121.25
X115.452Y-97.719
X115.452Y-100.259
X116.83Y-121.25
X117.992Y-97.719
X117.992Y-100.259
X120.532Y-97.719
X120.532Y-100.259
X123.072Y-97.719
X123.072Y-100.259
X125.612Y-97.719
X125.612Y-100.259
X128.152Y-97.719
X128.152Y-100.259
X130.692Y-97.719
X130.692Y-100.259
X133.232Y-97.719
X133.232Y-100.259
X135.772Y-97.719
X135.772Y-100.259
X138.312Y-97.719
X138.312Y-100.259
X140.852Y-97.719
X140.852Y-100.259
X143.392Y-97.719
X143.392Y-100.259
X145.932Y-97.719
X145.932Y-100.259
X148.472Y-97.719
X148.472Y-100.259
X151.012Y-97.719
X151.012Y-100.259
X153.552Y-97.719
X153.552Y-100.259
X156.092Y-97.719
X156.092Y-100.259
X158.632Y-97.719
X158.632Y-100.259
X161.172Y-97.719
X161.172Y-100.259
X165.Y-111.
X165.Y-113.54
X165.Y-116.08
T5
X124.912Y-117.009
X124.912Y-123.009
T3
X122.012Y-117.284G85X122.012Y-116.734
G05
X122.012Y-120.784G85X122.012Y-120.234
G05
X122.012Y-123.984G85X122.012Y-123.434
G05
X127.812Y-123.984G85X127.812Y-123.434
G05
X127.912Y-117.284G85X127.912Y-116.734
G05
T0
M30
