G04 #@! TF.FileFunction,Legend,Bot*
%FSLAX45Y45*%
G04 Gerber Fmt 4.5, Leading zero omitted, Abs format (unit mm)*
G04 Created by KiCad (PCBNEW 4.0.6+dfsg1-1) date Thu Nov  9 14:23:44 2017*
%MOMM*%
%LPD*%
G01*
G04 APERTURE LIST*
%ADD10C,0.150000*%
%ADD11C,0.300000*%
G04 APERTURE END LIST*
D10*
D11*
X14305474Y-12142728D02*
X14355474Y-12142728D01*
X14355474Y-12221299D02*
X14355474Y-12071299D01*
X14284045Y-12071299D01*
X14205474Y-12221299D02*
X14219759Y-12214156D01*
X14226902Y-12199871D01*
X14226902Y-12071299D01*
X14084045Y-12221299D02*
X14084045Y-12142728D01*
X14091188Y-12128442D01*
X14105474Y-12121299D01*
X14134045Y-12121299D01*
X14148331Y-12128442D01*
X14084045Y-12214156D02*
X14098331Y-12221299D01*
X14134045Y-12221299D01*
X14148331Y-12214156D01*
X14155474Y-12199871D01*
X14155474Y-12185585D01*
X14148331Y-12171299D01*
X14134045Y-12164156D01*
X14098331Y-12164156D01*
X14084045Y-12157013D01*
X14034045Y-12121299D02*
X13976902Y-12121299D01*
X14012617Y-12071299D02*
X14012617Y-12199871D01*
X14005474Y-12214156D01*
X13991188Y-12221299D01*
X13976902Y-12221299D01*
X13926902Y-12221299D02*
X13926902Y-12121299D01*
X13926902Y-12135585D02*
X13919759Y-12128442D01*
X13905474Y-12121299D01*
X13884045Y-12121299D01*
X13869759Y-12128442D01*
X13862617Y-12142728D01*
X13862617Y-12221299D01*
X13862617Y-12142728D02*
X13855474Y-12128442D01*
X13841188Y-12121299D01*
X13819759Y-12121299D01*
X13805474Y-12128442D01*
X13798331Y-12142728D01*
X13798331Y-12221299D01*
X13662617Y-12221299D02*
X13662617Y-12142728D01*
X13669759Y-12128442D01*
X13684045Y-12121299D01*
X13712617Y-12121299D01*
X13726902Y-12128442D01*
X13662617Y-12214156D02*
X13676902Y-12221299D01*
X13712617Y-12221299D01*
X13726902Y-12214156D01*
X13734045Y-12199871D01*
X13734045Y-12185585D01*
X13726902Y-12171299D01*
X13712617Y-12164156D01*
X13676902Y-12164156D01*
X13662617Y-12157013D01*
X13605474Y-12221299D02*
X13526902Y-12121299D01*
X13605474Y-12121299D02*
X13526902Y-12221299D01*
X13312617Y-12278442D02*
X13319759Y-12271299D01*
X13334045Y-12249871D01*
X13341188Y-12235585D01*
X13348331Y-12214156D01*
X13355474Y-12178442D01*
X13355474Y-12149871D01*
X13348331Y-12114156D01*
X13341188Y-12092728D01*
X13334045Y-12078442D01*
X13319759Y-12057013D01*
X13312617Y-12049871D01*
X13169759Y-12207013D02*
X13176902Y-12214156D01*
X13198331Y-12221299D01*
X13212617Y-12221299D01*
X13234045Y-12214156D01*
X13248331Y-12199871D01*
X13255474Y-12185585D01*
X13262617Y-12157013D01*
X13262617Y-12135585D01*
X13255474Y-12107013D01*
X13248331Y-12092728D01*
X13234045Y-12078442D01*
X13212617Y-12071299D01*
X13198331Y-12071299D01*
X13176902Y-12078442D01*
X13169759Y-12085585D01*
X13119759Y-12278442D02*
X13112617Y-12271299D01*
X13098331Y-12249871D01*
X13091188Y-12235585D01*
X13084045Y-12214156D01*
X13076902Y-12178442D01*
X13076902Y-12149871D01*
X13084045Y-12114156D01*
X13091188Y-12092728D01*
X13098331Y-12078442D01*
X13112617Y-12057013D01*
X13119759Y-12049871D01*
X14230474Y-12476299D02*
X14230474Y-12326299D01*
X14173331Y-12326299D01*
X14159045Y-12333442D01*
X14151902Y-12340585D01*
X14144759Y-12354871D01*
X14144759Y-12376299D01*
X14151902Y-12390585D01*
X14159045Y-12397728D01*
X14173331Y-12404871D01*
X14230474Y-12404871D01*
X14080474Y-12476299D02*
X14080474Y-12326299D01*
X14023331Y-12326299D01*
X14009045Y-12333442D01*
X14001902Y-12340585D01*
X13994759Y-12354871D01*
X13994759Y-12376299D01*
X14001902Y-12390585D01*
X14009045Y-12397728D01*
X14023331Y-12404871D01*
X14080474Y-12404871D01*
X13930474Y-12476299D02*
X13930474Y-12326299D01*
X13873331Y-12326299D02*
X13773331Y-12326299D01*
X13873331Y-12476299D01*
X13773331Y-12476299D01*
X13616188Y-12376299D02*
X13580474Y-12476299D01*
X13544759Y-12376299D01*
X13409045Y-12476299D02*
X13494759Y-12476299D01*
X13451902Y-12476299D02*
X13451902Y-12326299D01*
X13466188Y-12347728D01*
X13480474Y-12362013D01*
X13494759Y-12369156D01*
X13344759Y-12462013D02*
X13337617Y-12469156D01*
X13344759Y-12476299D01*
X13351902Y-12469156D01*
X13344759Y-12462013D01*
X13344759Y-12476299D01*
X13287616Y-12326299D02*
X13187616Y-12326299D01*
X13251902Y-12476299D01*
X15741188Y-12376656D02*
X15741188Y-12305228D01*
X15698331Y-12390942D02*
X15848331Y-12340942D01*
X15698331Y-12290942D01*
X15798331Y-12176656D02*
X15698331Y-12176656D01*
X15798331Y-12240942D02*
X15719759Y-12240942D01*
X15705474Y-12233799D01*
X15698331Y-12219513D01*
X15698331Y-12198085D01*
X15705474Y-12183799D01*
X15712617Y-12176656D01*
X15698331Y-12040942D02*
X15848331Y-12040942D01*
X15705474Y-12040942D02*
X15698331Y-12055228D01*
X15698331Y-12083799D01*
X15705474Y-12098085D01*
X15712617Y-12105228D01*
X15726902Y-12112371D01*
X15769759Y-12112371D01*
X15784045Y-12105228D01*
X15791188Y-12098085D01*
X15798331Y-12083799D01*
X15798331Y-12055228D01*
X15791188Y-12040942D01*
X15698331Y-11969513D02*
X15798331Y-11969513D01*
X15848331Y-11969513D02*
X15841188Y-11976656D01*
X15834045Y-11969513D01*
X15841188Y-11962371D01*
X15848331Y-11969513D01*
X15834045Y-11969513D01*
X15698331Y-11876656D02*
X15705474Y-11890942D01*
X15712617Y-11898085D01*
X15726902Y-11905228D01*
X15769759Y-11905228D01*
X15784045Y-11898085D01*
X15791188Y-11890942D01*
X15798331Y-11876656D01*
X15798331Y-11855228D01*
X15791188Y-11840942D01*
X15784045Y-11833799D01*
X15769759Y-11826656D01*
X15726902Y-11826656D01*
X15712617Y-11833799D01*
X15705474Y-11840942D01*
X15698331Y-11855228D01*
X15698331Y-11876656D01*
X15698331Y-11762370D02*
X15848331Y-11762370D01*
X15798331Y-11690942D02*
X15698331Y-11690942D01*
X15784045Y-11690942D02*
X15791188Y-11683799D01*
X15798331Y-11669513D01*
X15798331Y-11648085D01*
X15791188Y-11633799D01*
X15776902Y-11626656D01*
X15698331Y-11626656D01*
X15798331Y-11555228D02*
X15669759Y-11555228D01*
X15655474Y-11562370D01*
X15648331Y-11576656D01*
X15648331Y-11583799D01*
X15848331Y-11555228D02*
X15841188Y-11562370D01*
X15834045Y-11555228D01*
X15841188Y-11548085D01*
X15848331Y-11555228D01*
X15834045Y-11555228D01*
X15705474Y-11426656D02*
X15698331Y-11440942D01*
X15698331Y-11469513D01*
X15705474Y-11483799D01*
X15719759Y-11490942D01*
X15776902Y-11490942D01*
X15791188Y-11483799D01*
X15798331Y-11469513D01*
X15798331Y-11440942D01*
X15791188Y-11426656D01*
X15776902Y-11419513D01*
X15762617Y-11419513D01*
X15748331Y-11490942D01*
X15705474Y-11290942D02*
X15698331Y-11305228D01*
X15698331Y-11333799D01*
X15705474Y-11348085D01*
X15712617Y-11355228D01*
X15726902Y-11362370D01*
X15769759Y-11362370D01*
X15784045Y-11355228D01*
X15791188Y-11348085D01*
X15798331Y-11333799D01*
X15798331Y-11305228D01*
X15791188Y-11290942D01*
X15798331Y-11248085D02*
X15798331Y-11190942D01*
X15848331Y-11226656D02*
X15719759Y-11226656D01*
X15705474Y-11219513D01*
X15698331Y-11205228D01*
X15698331Y-11190942D01*
X15698331Y-11119513D02*
X15705474Y-11133799D01*
X15712617Y-11140942D01*
X15726902Y-11148085D01*
X15769759Y-11148085D01*
X15784045Y-11140942D01*
X15791188Y-11133799D01*
X15798331Y-11119513D01*
X15798331Y-11098085D01*
X15791188Y-11083799D01*
X15784045Y-11076656D01*
X15769759Y-11069513D01*
X15726902Y-11069513D01*
X15712617Y-11076656D01*
X15705474Y-11083799D01*
X15698331Y-11098085D01*
X15698331Y-11119513D01*
X15698331Y-11005228D02*
X15798331Y-11005228D01*
X15769759Y-11005228D02*
X15784045Y-10998085D01*
X15791188Y-10990942D01*
X15798331Y-10976656D01*
X15798331Y-10962371D01*
X15712617Y-10912371D02*
X15705474Y-10905228D01*
X15698331Y-10912371D01*
X15705474Y-10919513D01*
X15712617Y-10912371D01*
X15698331Y-10912371D01*
X15798331Y-10840942D02*
X15698331Y-10840942D01*
X15784045Y-10840942D02*
X15791188Y-10833799D01*
X15798331Y-10819513D01*
X15798331Y-10798085D01*
X15791188Y-10783799D01*
X15776902Y-10776656D01*
X15698331Y-10776656D01*
X15705474Y-10648085D02*
X15698331Y-10662371D01*
X15698331Y-10690942D01*
X15705474Y-10705228D01*
X15719759Y-10712371D01*
X15776902Y-10712371D01*
X15791188Y-10705228D01*
X15798331Y-10690942D01*
X15798331Y-10662371D01*
X15791188Y-10648085D01*
X15776902Y-10640942D01*
X15762617Y-10640942D01*
X15748331Y-10712371D01*
X15798331Y-10598085D02*
X15798331Y-10540942D01*
X15848331Y-10576656D02*
X15719759Y-10576656D01*
X15705474Y-10569513D01*
X15698331Y-10555228D01*
X15698331Y-10540942D01*
X15338331Y-11637370D02*
X15338331Y-11537370D01*
X15188331Y-11637370D01*
X15188331Y-11537370D01*
X15195474Y-11423085D02*
X15188331Y-11437371D01*
X15188331Y-11465942D01*
X15195474Y-11480228D01*
X15209759Y-11487371D01*
X15266902Y-11487371D01*
X15281188Y-11480228D01*
X15288331Y-11465942D01*
X15288331Y-11437371D01*
X15281188Y-11423085D01*
X15266902Y-11415942D01*
X15252617Y-11415942D01*
X15238331Y-11487371D01*
X15188331Y-11351656D02*
X15288331Y-11351656D01*
X15259759Y-11351656D02*
X15274045Y-11344513D01*
X15281188Y-11337371D01*
X15288331Y-11323085D01*
X15288331Y-11308799D01*
X15188331Y-11237371D02*
X15195474Y-11251656D01*
X15202617Y-11258799D01*
X15216902Y-11265942D01*
X15259759Y-11265942D01*
X15274045Y-11258799D01*
X15281188Y-11251656D01*
X15288331Y-11237371D01*
X15288331Y-11215942D01*
X15281188Y-11201656D01*
X15274045Y-11194513D01*
X15259759Y-11187371D01*
X15216902Y-11187371D01*
X15202617Y-11194513D01*
X15195474Y-11201656D01*
X15188331Y-11215942D01*
X15188331Y-11237371D01*
D10*
X16950000Y-12205000D02*
X16950000Y-12250000D01*
X16650000Y-12550000D02*
X16595000Y-12550000D01*
X16950000Y-12205000D02*
X16950000Y-12250000D01*
X16950000Y-9850000D02*
X16950000Y-12205000D01*
X10750000Y-12550000D02*
X16595000Y-12550000D01*
X10450000Y-11450000D02*
X10450000Y-12250000D01*
X10750000Y-9550000D02*
X16600000Y-9550000D01*
X10450000Y-11450000D02*
X10450000Y-9850000D01*
X10450000Y-12250000D02*
G75*
G03X10750000Y-12550000I300000J0D01*
G01*
X16650000Y-12550000D02*
G75*
G03X16950000Y-12250000I0J300000D01*
G01*
X16650000Y-9550000D02*
X16600000Y-9550000D01*
X16950000Y-9850000D02*
G75*
G03X16650000Y-9550000I-300000J0D01*
G01*
X10750000Y-9550000D02*
G75*
G03X10450000Y-9850000I0J-300000D01*
G01*
M02*
