G04 #@! TF.FileFunction,Legend,Top*
%FSLAX45Y45*%
G04 Gerber Fmt 4.5, Leading zero omitted, Abs format (unit mm)*
G04 Created by KiCad (PCBNEW 4.0.6+dfsg1-1) date Thu Nov  9 14:23:44 2017*
%MOMM*%
%LPD*%
G01*
G04 APERTURE LIST*
%ADD10C,0.150000*%
%ADD11C,0.250000*%
%ADD12C,0.300000*%
G04 APERTURE END LIST*
D10*
D11*
X15881905Y-12387143D02*
X15958095Y-12387143D01*
X15920000Y-12425238D02*
X15920000Y-12349048D01*
X16127619Y-10775238D02*
X16194286Y-10775238D01*
X16127619Y-10875238D01*
X16194286Y-10875238D01*
X16270476Y-10870476D02*
X16260952Y-10875238D01*
X16241905Y-10875238D01*
X16232381Y-10870476D01*
X16227619Y-10860952D01*
X16227619Y-10822857D01*
X16232381Y-10813333D01*
X16241905Y-10808571D01*
X16260952Y-10808571D01*
X16270476Y-10813333D01*
X16275238Y-10822857D01*
X16275238Y-10832381D01*
X16227619Y-10841905D01*
X16318095Y-10875238D02*
X16318095Y-10808571D01*
X16318095Y-10827619D02*
X16322857Y-10818095D01*
X16327619Y-10813333D01*
X16337143Y-10808571D01*
X16346667Y-10808571D01*
X16394286Y-10875238D02*
X16384762Y-10870476D01*
X16380000Y-10865714D01*
X16375238Y-10856191D01*
X16375238Y-10827619D01*
X16380000Y-10818095D01*
X16384762Y-10813333D01*
X16394286Y-10808571D01*
X16408571Y-10808571D01*
X16418095Y-10813333D01*
X16422857Y-10818095D01*
X16427619Y-10827619D01*
X16427619Y-10856191D01*
X16422857Y-10865714D01*
X16418095Y-10870476D01*
X16408571Y-10875238D01*
X16394286Y-10875238D01*
X15682857Y-10566667D02*
X15730476Y-10566667D01*
X15673333Y-10595238D02*
X15706667Y-10495238D01*
X15740000Y-10595238D01*
X15816190Y-10528571D02*
X15816190Y-10595238D01*
X15773333Y-10528571D02*
X15773333Y-10580952D01*
X15778095Y-10590476D01*
X15787619Y-10595238D01*
X15801905Y-10595238D01*
X15811429Y-10590476D01*
X15816190Y-10585714D01*
X15906667Y-10595238D02*
X15906667Y-10495238D01*
X15906667Y-10590476D02*
X15897143Y-10595238D01*
X15878095Y-10595238D01*
X15868571Y-10590476D01*
X15863809Y-10585714D01*
X15859048Y-10576191D01*
X15859048Y-10547619D01*
X15863809Y-10538095D01*
X15868571Y-10533333D01*
X15878095Y-10528571D01*
X15897143Y-10528571D01*
X15906667Y-10533333D01*
X15954286Y-10595238D02*
X15954286Y-10528571D01*
X15954286Y-10495238D02*
X15949524Y-10500000D01*
X15954286Y-10504762D01*
X15959048Y-10500000D01*
X15954286Y-10495238D01*
X15954286Y-10504762D01*
X16016190Y-10595238D02*
X16006667Y-10590476D01*
X16001905Y-10585714D01*
X15997143Y-10576191D01*
X15997143Y-10547619D01*
X16001905Y-10538095D01*
X16006667Y-10533333D01*
X16016190Y-10528571D01*
X16030476Y-10528571D01*
X16040000Y-10533333D01*
X16044762Y-10538095D01*
X16049524Y-10547619D01*
X16049524Y-10576191D01*
X16044762Y-10585714D01*
X16040000Y-10590476D01*
X16030476Y-10595238D01*
X16016190Y-10595238D01*
X16092381Y-10595238D02*
X16092381Y-10528571D01*
X16092381Y-10495238D02*
X16087619Y-10500000D01*
X16092381Y-10504762D01*
X16097143Y-10500000D01*
X16092381Y-10495238D01*
X16092381Y-10504762D01*
X16140000Y-10528571D02*
X16140000Y-10595238D01*
X16140000Y-10538095D02*
X16144762Y-10533333D01*
X16154286Y-10528571D01*
X16168571Y-10528571D01*
X16178095Y-10533333D01*
X16182857Y-10542857D01*
X16182857Y-10595238D01*
X16230476Y-10528571D02*
X16230476Y-10614286D01*
X16225714Y-10623810D01*
X16216190Y-10628571D01*
X16211428Y-10628571D01*
X16230476Y-10495238D02*
X16225714Y-10500000D01*
X16230476Y-10504762D01*
X16235238Y-10500000D01*
X16230476Y-10495238D01*
X16230476Y-10504762D01*
X16316190Y-10590476D02*
X16306667Y-10595238D01*
X16287619Y-10595238D01*
X16278095Y-10590476D01*
X16273333Y-10580952D01*
X16273333Y-10542857D01*
X16278095Y-10533333D01*
X16287619Y-10528571D01*
X16306667Y-10528571D01*
X16316190Y-10533333D01*
X16320952Y-10542857D01*
X16320952Y-10552381D01*
X16273333Y-10561905D01*
X16406667Y-10590476D02*
X16397143Y-10595238D01*
X16378095Y-10595238D01*
X16368571Y-10590476D01*
X16363809Y-10585714D01*
X16359047Y-10576191D01*
X16359047Y-10547619D01*
X16363809Y-10538095D01*
X16368571Y-10533333D01*
X16378095Y-10528571D01*
X16397143Y-10528571D01*
X16406667Y-10533333D01*
X16435238Y-10528571D02*
X16473333Y-10528571D01*
X16449524Y-10495238D02*
X16449524Y-10580952D01*
X16454286Y-10590476D01*
X16463809Y-10595238D01*
X16473333Y-10595238D01*
X16520952Y-10595238D02*
X16511428Y-10590476D01*
X16506667Y-10585714D01*
X16501905Y-10576191D01*
X16501905Y-10547619D01*
X16506667Y-10538095D01*
X16511428Y-10533333D01*
X16520952Y-10528571D01*
X16535238Y-10528571D01*
X16544762Y-10533333D01*
X16549524Y-10538095D01*
X16554286Y-10547619D01*
X16554286Y-10576191D01*
X16549524Y-10585714D01*
X16544762Y-10590476D01*
X16535238Y-10595238D01*
X16520952Y-10595238D01*
X16597143Y-10595238D02*
X16597143Y-10528571D01*
X16597143Y-10547619D02*
X16601905Y-10538095D01*
X16606667Y-10533333D01*
X16616190Y-10528571D01*
X16625714Y-10528571D01*
X16659048Y-10585714D02*
X16663809Y-10590476D01*
X16659048Y-10595238D01*
X16654286Y-10590476D01*
X16659048Y-10585714D01*
X16659048Y-10595238D01*
X16706667Y-10528571D02*
X16706667Y-10595238D01*
X16706667Y-10538095D02*
X16711428Y-10533333D01*
X16720952Y-10528571D01*
X16735238Y-10528571D01*
X16744762Y-10533333D01*
X16749524Y-10542857D01*
X16749524Y-10595238D01*
X16835238Y-10590476D02*
X16825714Y-10595238D01*
X16806667Y-10595238D01*
X16797143Y-10590476D01*
X16792381Y-10580952D01*
X16792381Y-10542857D01*
X16797143Y-10533333D01*
X16806667Y-10528571D01*
X16825714Y-10528571D01*
X16835238Y-10533333D01*
X16840000Y-10542857D01*
X16840000Y-10552381D01*
X16792381Y-10561905D01*
X16868571Y-10528571D02*
X16906667Y-10528571D01*
X16882857Y-10495238D02*
X16882857Y-10580952D01*
X16887619Y-10590476D01*
X16897143Y-10595238D01*
X16906667Y-10595238D01*
X11204762Y-12470238D02*
X11204762Y-12370238D01*
X11242857Y-12370238D01*
X11252381Y-12375000D01*
X11257143Y-12379762D01*
X11261905Y-12389286D01*
X11261905Y-12403571D01*
X11257143Y-12413095D01*
X11252381Y-12417857D01*
X11242857Y-12422619D01*
X11204762Y-12422619D01*
X11304762Y-12470238D02*
X11304762Y-12370238D01*
X11347619Y-12470238D02*
X11347619Y-12417857D01*
X11342857Y-12408333D01*
X11333333Y-12403571D01*
X11319048Y-12403571D01*
X11309524Y-12408333D01*
X11304762Y-12413095D01*
X11409524Y-12470238D02*
X11400000Y-12465476D01*
X11395238Y-12460714D01*
X11390476Y-12451190D01*
X11390476Y-12422619D01*
X11395238Y-12413095D01*
X11400000Y-12408333D01*
X11409524Y-12403571D01*
X11423810Y-12403571D01*
X11433333Y-12408333D01*
X11438095Y-12413095D01*
X11442857Y-12422619D01*
X11442857Y-12451190D01*
X11438095Y-12460714D01*
X11433333Y-12465476D01*
X11423810Y-12470238D01*
X11409524Y-12470238D01*
X11485714Y-12403571D02*
X11485714Y-12470238D01*
X11485714Y-12413095D02*
X11490476Y-12408333D01*
X11500000Y-12403571D01*
X11514286Y-12403571D01*
X11523810Y-12408333D01*
X11528571Y-12417857D01*
X11528571Y-12470238D01*
X11614286Y-12465476D02*
X11604762Y-12470238D01*
X11585714Y-12470238D01*
X11576190Y-12465476D01*
X11571429Y-12455952D01*
X11571429Y-12417857D01*
X11576190Y-12408333D01*
X11585714Y-12403571D01*
X11604762Y-12403571D01*
X11614286Y-12408333D01*
X11619048Y-12417857D01*
X11619048Y-12427381D01*
X11571429Y-12436905D01*
X11657143Y-12465476D02*
X11666667Y-12470238D01*
X11685714Y-12470238D01*
X11695238Y-12465476D01*
X11700000Y-12455952D01*
X11700000Y-12451190D01*
X11695238Y-12441667D01*
X11685714Y-12436905D01*
X11671429Y-12436905D01*
X11661905Y-12432143D01*
X11657143Y-12422619D01*
X11657143Y-12417857D01*
X11661905Y-12408333D01*
X11671429Y-12403571D01*
X11685714Y-12403571D01*
X11695238Y-12408333D01*
X16115238Y-11454286D02*
X16015238Y-11454286D01*
X16048571Y-11406667D02*
X16115238Y-11406667D01*
X16058095Y-11406667D02*
X16053333Y-11401905D01*
X16048571Y-11392381D01*
X16048571Y-11378095D01*
X16053333Y-11368571D01*
X16062857Y-11363809D01*
X16115238Y-11363809D01*
X16048571Y-11316190D02*
X16148571Y-11316190D01*
X16053333Y-11316190D02*
X16048571Y-11306667D01*
X16048571Y-11287619D01*
X16053333Y-11278095D01*
X16058095Y-11273333D01*
X16067619Y-11268571D01*
X16096190Y-11268571D01*
X16105714Y-11273333D01*
X16110476Y-11278095D01*
X16115238Y-11287619D01*
X16115238Y-11306667D01*
X16110476Y-11316190D01*
X16048571Y-11182857D02*
X16115238Y-11182857D01*
X16048571Y-11225714D02*
X16100952Y-11225714D01*
X16110476Y-11220952D01*
X16115238Y-11211429D01*
X16115238Y-11197143D01*
X16110476Y-11187619D01*
X16105714Y-11182857D01*
X16048571Y-11149524D02*
X16048571Y-11111429D01*
X16015238Y-11135238D02*
X16100952Y-11135238D01*
X16110476Y-11130476D01*
X16115238Y-11120952D01*
X16115238Y-11111429D01*
X10560714Y-11300000D02*
X10551191Y-11295238D01*
X10536905Y-11295238D01*
X10522619Y-11300000D01*
X10513095Y-11309524D01*
X10508333Y-11319048D01*
X10503571Y-11338095D01*
X10503571Y-11352381D01*
X10508333Y-11371429D01*
X10513095Y-11380952D01*
X10522619Y-11390476D01*
X10536905Y-11395238D01*
X10546429Y-11395238D01*
X10560714Y-11390476D01*
X10565476Y-11385714D01*
X10565476Y-11352381D01*
X10546429Y-11352381D01*
X10608333Y-11328571D02*
X10608333Y-11395238D01*
X10608333Y-11338095D02*
X10613095Y-11333333D01*
X10622619Y-11328571D01*
X10636905Y-11328571D01*
X10646429Y-11333333D01*
X10651191Y-11342857D01*
X10651191Y-11395238D01*
X10741667Y-11395238D02*
X10741667Y-11295238D01*
X10741667Y-11390476D02*
X10732143Y-11395238D01*
X10713095Y-11395238D01*
X10703571Y-11390476D01*
X10698810Y-11385714D01*
X10694048Y-11376190D01*
X10694048Y-11347619D01*
X10698810Y-11338095D01*
X10703571Y-11333333D01*
X10713095Y-11328571D01*
X10732143Y-11328571D01*
X10741667Y-11333333D01*
X10580952Y-11695238D02*
X10533333Y-11695238D01*
X10533333Y-11595238D01*
X10647619Y-10575238D02*
X10666667Y-10575238D01*
X10676191Y-10580000D01*
X10685714Y-10589524D01*
X10690476Y-10608571D01*
X10690476Y-10641905D01*
X10685714Y-10660952D01*
X10676191Y-10670476D01*
X10666667Y-10675238D01*
X10647619Y-10675238D01*
X10638095Y-10670476D01*
X10628571Y-10660952D01*
X10623810Y-10641905D01*
X10623810Y-10608571D01*
X10628571Y-10589524D01*
X10638095Y-10580000D01*
X10647619Y-10575238D01*
X10776191Y-10608571D02*
X10776191Y-10675238D01*
X10733333Y-10608571D02*
X10733333Y-10660952D01*
X10738095Y-10670476D01*
X10747619Y-10675238D01*
X10761905Y-10675238D01*
X10771429Y-10670476D01*
X10776191Y-10665714D01*
X10809524Y-10608571D02*
X10847619Y-10608571D01*
X10823810Y-10575238D02*
X10823810Y-10660952D01*
X10828571Y-10670476D01*
X10838095Y-10675238D01*
X10847619Y-10675238D01*
X10880952Y-10608571D02*
X10880952Y-10708571D01*
X10880952Y-10613333D02*
X10890476Y-10608571D01*
X10909524Y-10608571D01*
X10919048Y-10613333D01*
X10923810Y-10618095D01*
X10928572Y-10627619D01*
X10928572Y-10656191D01*
X10923810Y-10665714D01*
X10919048Y-10670476D01*
X10909524Y-10675238D01*
X10890476Y-10675238D01*
X10880952Y-10670476D01*
X11014286Y-10608571D02*
X11014286Y-10675238D01*
X10971429Y-10608571D02*
X10971429Y-10660952D01*
X10976191Y-10670476D01*
X10985714Y-10675238D01*
X11000000Y-10675238D01*
X11009524Y-10670476D01*
X11014286Y-10665714D01*
X11047619Y-10608571D02*
X11085714Y-10608571D01*
X11061905Y-10575238D02*
X11061905Y-10660952D01*
X11066667Y-10670476D01*
X11076191Y-10675238D01*
X11085714Y-10675238D01*
X10580952Y-11095238D02*
X10547619Y-11047619D01*
X10523810Y-11095238D02*
X10523810Y-10995238D01*
X10561905Y-10995238D01*
X10571429Y-11000000D01*
X10576191Y-11004762D01*
X10580952Y-11014286D01*
X10580952Y-11028571D01*
X10576191Y-11038095D01*
X10571429Y-11042857D01*
X10561905Y-11047619D01*
X10523810Y-11047619D01*
X16905952Y-11120238D02*
X16858333Y-11120238D01*
X16858333Y-11020238D01*
X16901191Y-11300000D02*
X16891667Y-11295238D01*
X16877381Y-11295238D01*
X16863095Y-11300000D01*
X16853571Y-11309524D01*
X16848810Y-11319048D01*
X16844048Y-11338095D01*
X16844048Y-11352381D01*
X16848810Y-11371429D01*
X16853571Y-11380952D01*
X16863095Y-11390476D01*
X16877381Y-11395238D01*
X16886905Y-11395238D01*
X16901191Y-11390476D01*
X16905952Y-11385714D01*
X16905952Y-11352381D01*
X16886905Y-11352381D01*
X16905952Y-11670238D02*
X16872619Y-11622619D01*
X16848810Y-11670238D02*
X16848810Y-11570238D01*
X16886905Y-11570238D01*
X16896429Y-11575000D01*
X16901191Y-11579762D01*
X16905952Y-11589286D01*
X16905952Y-11603571D01*
X16901191Y-11613095D01*
X16896429Y-11617857D01*
X16886905Y-11622619D01*
X16848810Y-11622619D01*
D12*
X12331188Y-11080942D02*
X12388331Y-11080942D01*
X12319759Y-11115228D02*
X12359759Y-10995228D01*
X12399759Y-11115228D01*
X12491188Y-11035228D02*
X12491188Y-11115228D01*
X12439759Y-11035228D02*
X12439759Y-11098085D01*
X12445474Y-11109513D01*
X12456902Y-11115228D01*
X12474045Y-11115228D01*
X12485474Y-11109513D01*
X12491188Y-11103799D01*
X12599759Y-11115228D02*
X12599759Y-10995228D01*
X12599759Y-11109513D02*
X12588331Y-11115228D01*
X12565474Y-11115228D01*
X12554045Y-11109513D01*
X12548331Y-11103799D01*
X12542616Y-11092371D01*
X12542616Y-11058085D01*
X12548331Y-11046656D01*
X12554045Y-11040942D01*
X12565474Y-11035228D01*
X12588331Y-11035228D01*
X12599759Y-11040942D01*
X12656902Y-11115228D02*
X12656902Y-11035228D01*
X12656902Y-10995228D02*
X12651188Y-11000942D01*
X12656902Y-11006656D01*
X12662616Y-11000942D01*
X12656902Y-10995228D01*
X12656902Y-11006656D01*
X12731188Y-11115228D02*
X12719759Y-11109513D01*
X12714045Y-11103799D01*
X12708331Y-11092371D01*
X12708331Y-11058085D01*
X12714045Y-11046656D01*
X12719759Y-11040942D01*
X12731188Y-11035228D01*
X12748331Y-11035228D01*
X12759759Y-11040942D01*
X12765474Y-11046656D01*
X12771188Y-11058085D01*
X12771188Y-11092371D01*
X12765474Y-11103799D01*
X12759759Y-11109513D01*
X12748331Y-11115228D01*
X12731188Y-11115228D01*
X12239759Y-11325228D02*
X12239759Y-11205228D01*
X12296902Y-11245228D02*
X12296902Y-11325228D01*
X12296902Y-11256656D02*
X12302617Y-11250942D01*
X12314045Y-11245228D01*
X12331188Y-11245228D01*
X12342617Y-11250942D01*
X12348331Y-11262371D01*
X12348331Y-11325228D01*
X12405474Y-11245228D02*
X12405474Y-11348085D01*
X12399759Y-11359513D01*
X12388331Y-11365228D01*
X12382617Y-11365228D01*
X12405474Y-11205228D02*
X12399759Y-11210942D01*
X12405474Y-11216656D01*
X12411188Y-11210942D01*
X12405474Y-11205228D01*
X12405474Y-11216656D01*
X12508331Y-11319513D02*
X12496902Y-11325228D01*
X12474045Y-11325228D01*
X12462617Y-11319513D01*
X12456902Y-11308085D01*
X12456902Y-11262371D01*
X12462617Y-11250942D01*
X12474045Y-11245228D01*
X12496902Y-11245228D01*
X12508331Y-11250942D01*
X12514045Y-11262371D01*
X12514045Y-11273799D01*
X12456902Y-11285228D01*
X12616902Y-11319513D02*
X12605474Y-11325228D01*
X12582617Y-11325228D01*
X12571188Y-11319513D01*
X12565474Y-11313799D01*
X12559759Y-11302371D01*
X12559759Y-11268085D01*
X12565474Y-11256656D01*
X12571188Y-11250942D01*
X12582617Y-11245228D01*
X12605474Y-11245228D01*
X12616902Y-11250942D01*
X12651188Y-11245228D02*
X12696902Y-11245228D01*
X12668331Y-11205228D02*
X12668331Y-11308085D01*
X12674045Y-11319513D01*
X12685474Y-11325228D01*
X12696902Y-11325228D01*
X12754045Y-11325228D02*
X12742617Y-11319513D01*
X12736902Y-11313799D01*
X12731188Y-11302371D01*
X12731188Y-11268085D01*
X12736902Y-11256656D01*
X12742617Y-11250942D01*
X12754045Y-11245228D01*
X12771188Y-11245228D01*
X12782617Y-11250942D01*
X12788331Y-11256656D01*
X12794045Y-11268085D01*
X12794045Y-11302371D01*
X12788331Y-11313799D01*
X12782617Y-11319513D01*
X12771188Y-11325228D01*
X12754045Y-11325228D01*
X12845474Y-11325228D02*
X12845474Y-11245228D01*
X12845474Y-11268085D02*
X12851188Y-11256656D01*
X12856902Y-11250942D01*
X12868331Y-11245228D01*
X12879759Y-11245228D01*
D10*
X16950000Y-12205000D02*
X16950000Y-12250000D01*
X16650000Y-12550000D02*
X16595000Y-12550000D01*
X16950000Y-12205000D02*
X16950000Y-12250000D01*
X16950000Y-9850000D02*
X16950000Y-12205000D01*
X10750000Y-12550000D02*
X16595000Y-12550000D01*
X10450000Y-11450000D02*
X10450000Y-12250000D01*
X10750000Y-9550000D02*
X16600000Y-9550000D01*
X10450000Y-11450000D02*
X10450000Y-9850000D01*
X10450000Y-12250000D02*
G75*
G03X10750000Y-12550000I300000J0D01*
G01*
X16650000Y-12550000D02*
G75*
G03X16950000Y-12250000I0J300000D01*
G01*
X16650000Y-9550000D02*
X16600000Y-9550000D01*
X16950000Y-9850000D02*
G75*
G03X16650000Y-9550000I-300000J0D01*
G01*
X10750000Y-9550000D02*
G75*
G03X10450000Y-9850000I0J-300000D01*
G01*
X16373000Y-11227000D02*
X16373000Y-11735000D01*
X16373000Y-11735000D02*
X16627000Y-11735000D01*
X16627000Y-11735000D02*
X16627000Y-11227000D01*
X16655000Y-10945000D02*
X16655000Y-11100000D01*
X16627000Y-11227000D02*
X16373000Y-11227000D01*
X16345000Y-11100000D02*
X16345000Y-10945000D01*
X16345000Y-10945000D02*
X16655000Y-10945000D01*
X16244188Y-9644942D02*
X11164188Y-9644942D01*
X11418188Y-10152942D02*
X16244188Y-10152942D01*
X16244188Y-9644942D02*
X16244188Y-10152942D01*
X11164188Y-9644942D02*
X11164188Y-9898942D01*
X11136188Y-10025942D02*
X11136188Y-10180942D01*
X11164188Y-9898942D02*
X11418188Y-9898942D01*
X11418188Y-9898942D02*
X11418188Y-10152942D01*
X11136188Y-10180942D02*
X11291188Y-10180942D01*
X12191188Y-12550942D02*
X12191188Y-12800942D01*
X12191188Y-12800942D02*
X12791188Y-12800942D01*
X12791188Y-12800942D02*
X12791188Y-12550942D01*
X12191188Y-12550942D02*
X12191188Y-11400942D01*
X12191188Y-11400942D02*
X12791188Y-11400942D01*
X12791188Y-11400942D02*
X12791188Y-12550942D01*
X12791188Y-12550942D02*
X12191188Y-12550942D01*
X16052500Y-11825100D02*
X16052500Y-12574900D01*
X16066500Y-11825600D02*
X16066500Y-12574400D01*
X16080500Y-11826700D02*
X16080500Y-12155400D01*
X16080500Y-12244600D02*
X16080500Y-12573300D01*
X16094500Y-11828300D02*
X16094500Y-12134400D01*
X16094500Y-12265600D02*
X16094500Y-12571700D01*
X16108500Y-11830400D02*
X16108500Y-12121100D01*
X16108500Y-12278900D02*
X16108500Y-12569600D01*
X16122500Y-11833100D02*
X16122500Y-12112000D01*
X16122500Y-12288000D02*
X16122500Y-12566900D01*
X16136500Y-11836300D02*
X16136500Y-12105800D01*
X16136500Y-12294200D02*
X16136500Y-12563700D01*
X16150500Y-11840100D02*
X16150500Y-12101900D01*
X16150500Y-12298100D02*
X16150500Y-12559900D01*
X16164500Y-11844500D02*
X16164500Y-12100200D01*
X16164500Y-12299800D02*
X16164500Y-12555500D01*
X16178500Y-11849600D02*
X16178500Y-12100400D01*
X16178500Y-12299600D02*
X16178500Y-12550400D01*
X16192500Y-11855200D02*
X16192500Y-12102600D01*
X16192500Y-12297400D02*
X16192500Y-12544800D01*
X16206500Y-11861600D02*
X16206500Y-12106900D01*
X16206500Y-12293100D02*
X16206500Y-12538400D01*
X16220500Y-11868600D02*
X16220500Y-12113700D01*
X16220500Y-12286300D02*
X16220500Y-12531400D01*
X16234500Y-11876400D02*
X16234500Y-12123600D01*
X16234500Y-12276400D02*
X16234500Y-12523600D01*
X16248500Y-11885000D02*
X16248500Y-12138100D01*
X16248500Y-12261900D02*
X16248500Y-12515000D01*
X16262500Y-11894500D02*
X16262500Y-12162000D01*
X16262500Y-12238000D02*
X16262500Y-12505500D01*
X16276500Y-11905000D02*
X16276500Y-12495000D01*
X16290500Y-11916500D02*
X16290500Y-12483500D01*
X16304500Y-11929300D02*
X16304500Y-12470700D01*
X16318500Y-11943400D02*
X16318500Y-12456600D01*
X16332500Y-11959200D02*
X16332500Y-12440800D01*
X16346500Y-11977000D02*
X16346500Y-12423000D01*
X16360500Y-11997300D02*
X16360500Y-12402700D01*
X16374500Y-12021000D02*
X16374500Y-12379000D01*
X16388500Y-12049600D02*
X16388500Y-12350400D01*
X16402500Y-12086800D02*
X16402500Y-12313200D01*
X16416500Y-12148900D02*
X16416500Y-12251100D01*
X16270000Y-12200000D02*
G75*
G03X16270000Y-12200000I-100000J0D01*
G01*
X16423750Y-12200000D02*
G75*
G03X16423750Y-12200000I-378750J0D01*
G01*
X11077000Y-11473000D02*
X11077000Y-10965000D01*
X11077000Y-10965000D02*
X10823000Y-10965000D01*
X10823000Y-10965000D02*
X10823000Y-11473000D01*
X10795000Y-11755000D02*
X10795000Y-11600000D01*
X10823000Y-11473000D02*
X11077000Y-11473000D01*
X11105000Y-11600000D02*
X11105000Y-11755000D01*
X11105000Y-11755000D02*
X10795000Y-11755000D01*
X11302000Y-12252000D02*
X11810000Y-12252000D01*
X11810000Y-12252000D02*
X11810000Y-11998000D01*
X11810000Y-11998000D02*
X11302000Y-11998000D01*
X11020000Y-11970000D02*
X11175000Y-11970000D01*
X11302000Y-11998000D02*
X11302000Y-12252000D01*
X11175000Y-12280000D02*
X11020000Y-12280000D01*
X11020000Y-12280000D02*
X11020000Y-11970000D01*
X10961426Y-9734275D02*
X11032855Y-9734275D01*
X11047140Y-9739037D01*
X11056664Y-9748561D01*
X11061426Y-9762847D01*
X11061426Y-9772371D01*
X10970950Y-9691418D02*
X10966188Y-9686656D01*
X10961426Y-9677133D01*
X10961426Y-9653323D01*
X10966188Y-9643799D01*
X10970950Y-9639037D01*
X10980474Y-9634275D01*
X10989998Y-9634275D01*
X11004283Y-9639037D01*
X11061426Y-9696180D01*
X11061426Y-9634275D01*
X12606426Y-11602132D02*
X12687378Y-11602132D01*
X12696902Y-11597371D01*
X12701664Y-11592609D01*
X12706426Y-11583085D01*
X12706426Y-11564037D01*
X12701664Y-11554513D01*
X12696902Y-11549751D01*
X12687378Y-11544990D01*
X12606426Y-11544990D01*
X12606426Y-11506894D02*
X12606426Y-11444990D01*
X12644521Y-11478323D01*
X12644521Y-11464037D01*
X12649283Y-11454513D01*
X12654045Y-11449751D01*
X12663569Y-11444990D01*
X12687378Y-11444990D01*
X12696902Y-11449751D01*
X12701664Y-11454513D01*
X12706426Y-11464037D01*
X12706426Y-11492609D01*
X12701664Y-11502132D01*
X12696902Y-11506894D01*
X15749762Y-12095238D02*
X15749762Y-12028571D01*
X15749762Y-12038095D02*
X15754524Y-12033333D01*
X15764048Y-12028571D01*
X15778333Y-12028571D01*
X15787857Y-12033333D01*
X15792619Y-12042857D01*
X15792619Y-12095238D01*
X15792619Y-12042857D02*
X15797381Y-12033333D01*
X15806905Y-12028571D01*
X15821190Y-12028571D01*
X15830714Y-12033333D01*
X15835476Y-12042857D01*
X15835476Y-12095238D01*
X15883095Y-12095238D02*
X15883095Y-12028571D01*
X15883095Y-11995238D02*
X15878333Y-12000000D01*
X15883095Y-12004762D01*
X15887857Y-12000000D01*
X15883095Y-11995238D01*
X15883095Y-12004762D01*
X15973571Y-12090476D02*
X15964048Y-12095238D01*
X15945000Y-12095238D01*
X15935476Y-12090476D01*
X15930714Y-12085714D01*
X15925952Y-12076190D01*
X15925952Y-12047619D01*
X15930714Y-12038095D01*
X15935476Y-12033333D01*
X15945000Y-12028571D01*
X15964048Y-12028571D01*
X15973571Y-12033333D01*
X15992619Y-12104762D02*
X16068809Y-12104762D01*
X16145000Y-12095238D02*
X16087857Y-12095238D01*
X16116428Y-12095238D02*
X16116428Y-11995238D01*
X16106905Y-12009524D01*
X16097381Y-12019048D01*
X16087857Y-12023809D01*
M02*
